<?xml version="1.0" encoding="utf-8"?>
<!-- Generator: Adobe Illustrator 25.1.0, SVG Export Plug-In . SVG Version: 6.00 Build 0)  -->
<svg version="1.1" id="Layer_1" xmlns="http://www.w3.org/2000/svg" xmlns:xlink="http://www.w3.org/1999/xlink" x="0px" y="0px"
	 viewBox="0 0 332.4 157.7" style="enable-background:new 0 0 332.4 157.7;" xml:space="preserve">
<style type="text/css">
	.st0{fill:#FFFFFF;}
</style>
<g>
	<path class="st0" d="M25.6,71.3c-7.2,0-14.3,0.1-21.5-0.1c-1.2,0-3-0.5-3.3-1.2c-0.3-1,0.2-2.7,1-3.6c2-2.4,2.7-5,2.7-8
		C4.3,44.3,4.3,30.1,4.4,16c0-3-0.7-5.5-2.6-7.8C1.1,7.2,0.4,5.5,0.8,4.6C1.1,3.8,3,3.4,4.2,3.3c6.2-0.1,12.5-0.1,18.7,0
		c1,0,2.8,0.5,3,1.2c0.3,1-0.1,2.6-0.9,3.4c-2.6,2.6-3.2,5.6-3.1,9.1c0.1,13.4,0,26.8,0.1,40.2c0,1.5,0.2,3.1,0.7,4.5
		c0.6,2,2.2,3,4.3,3c3.2,0,6.5,0.1,9.7,0c2.9-0.1,5-1.6,6.6-3.9c1.5-2.2,2.8-4.7,4.3-6.9c0.6-1,1.5-2,2.5-2.4c1-0.4,2.4-0.3,3.3,0.2
		c0.5,0.3,0.8,1.8,0.6,2.7c-0.7,4.5-1.6,9-2.3,13.6c-0.4,2.7-1.8,3.5-4.4,3.5C40.1,71.2,32.8,71.3,25.6,71.3z"/>
	<path class="st0" d="M128.4,31.8c0,8.2-0.2,16,0.1,23.9c0.1,3.8,4,5.4,7.7,3.5c0.7-0.4,1.3-1.1,2-1.5c1.1-0.7,2.3-1.4,3.4-2.1
		c0.3,1.4,1,2.8,0.8,4.2c-1.2,7.9-9,13.4-17.3,12.4c-9.1-1.1-13.9-6.8-14.2-16.9c-0.2-6.8,0-13.6-0.1-20.5c0-0.9,0-1.8,0-2.8
		c-1-0.1-1.7-0.1-2.3-0.1c-3-0.1-3.5-0.8-3.5-3.7c0-2.1,1.1-2.8,3-2.9c2-0.1,4.1-0.4,6-1.1c3.6-1.3,5.6-4.2,6.6-7.9
		c0.5-2,1.6-3.3,3.9-3.2c2.9,0.1,3.6,0.8,3.7,3.6c0,2.7,0,5.4,0,8.6c3,0,5.7,0,8.5,0c3,0,3.7,0.6,3.7,3.2c0,2.6-0.7,3.3-3.6,3.3
		C134.2,31.9,131.5,31.8,128.4,31.8z"/>
	<path class="st0" d="M157.6,0.5c-3.6-1.3-6.6,0.3-8,4.9c-0.3,2.5-0.6,5-0.9,7.7c-0.5,4.3-0.6,9.4,2.9,9.4c1.4,0,2.6-1,3.6-2.4
		c2-3.9,4-7.7,5.9-11.6C162.8,4.9,161.2,1.8,157.6,0.5z"/>
	<path class="st0" d="M176.5,27.2c-3.6,2.6-4,7.1-1.1,10.3c1.5,1.6,3.4,2.6,5.4,3.3c2.4,0.9,4.8,1.7,7.2,2.6c2.4,0.9,4.6,2,6.6,3.8
		c4.2,3.7,5,12.2,0.6,16.9c-2.3,2.4-5.1,3.9-8.2,4.9c-3.8,1.2-7.7,1.3-11.6,1.2c-4-0.1-7.8-0.7-11.5-2.1c-2.5-1-4.7-2.4-6.4-4.5
		c-1.6-2-1.7-4.2-1.2-6.5c0.3-1.5,1.4-2.5,2.7-3.2c3.6-1.9,8.2-0.6,10.2,3c0.8,1.5,1.5,3.1,2.2,4.6c0.4,0.8,0.8,1.7,1.3,2.5
		c1.6,2.3,4.1,2.7,6.9,1.8c1.2-0.4,2.1-1.3,2.4-2.5c0.6-2.5,0.6-4.9-1.4-6.9c-1.8-1.8-4.1-2.7-6.4-3.5c-3.6-1.2-7.3-2.3-10.7-4
		c-7.4-3.6-8.9-14.5-3-20.2c3-2.9,6.6-4.6,10.6-5.3c6-1.1,11.9-0.7,17.6,1.3c2.6,0.9,5,2.2,6.8,4.4c1.2,1.5,1.9,3.2,2.1,5.4
		c-0.3,4.8-5.6,6.5-9,5.2c-1.7-0.6-2.9-1.8-3.7-3.3c-0.6-1.1-1.1-2.3-1.6-3.5c-0.3-0.8-0.6-1.6-1-2.4
		C180.9,27.5,179.9,26.9,176.5,27.2z"/>
	<path class="st0" d="M254.8,34.7c3.7,0.9,7.1,1.9,10,3.9c10,7,8.8,20.8,0.3,26.5c-3.3,2.2-6.9,3.7-10.7,4.6
		c-5.2,1.2-10.4,1.6-15.7,1.6c-8.1,0-16.2,0-24.3,0c-1.2,0-2.4,0.1-3.3-1.1c-0.5-1.3-0.1-2.4,0.8-3.5c0.3-0.3,0.5-0.7,0.8-1
		c1.3-1.5,2.1-3.3,2-5.4c-0.1-2.1,0-4.3,0-6.4c0-13-0.1-25.9,0-38.9c0-2.6-0.6-4.8-2.4-6.8c-1-1.1-1.7-2.4-1.2-3.9
		c0.7-1.1,1.8-1.1,3-1.1c4.5,0,9,0,13.6,0c4.8,0,9.6,0,14.3,0c3.9,0.1,7.8,0.7,11.5,2.1c3.8,1.4,7.2,3.5,9.4,7.1
		c3.9,6.2,2.7,14.5-2.5,18.9c-1.1,0.9-2.4,1.6-3.6,2.3C256.1,34,255.6,34.3,254.8,34.7z M232,38.8c0,6.4-0.2,12.5,0.1,18.6
		c0.2,4.2,3.1,6.9,7,7.2c1.9,0.1,3.8,0.2,5.6,0c4.4-0.5,7.8-2.4,8.6-7.6c0.9-5.6-1.1-10.4-5.4-14.1C243.4,38.9,238,38.3,232,38.8z
		 M231.9,20.9c0,2-0.1,4.1,0,6.1c0.1,2.9,2,5,5,5c1.9,0,3.8,0.1,5.6,0c3.4-0.2,6.2-2.4,7.1-5.6c1-3.8,0.5-7.4-1.2-10.9
		c-1.2-2.5-3.2-4.2-5.9-4.9c-1.7-0.4-3.5-0.5-5.3-0.6c-3.7,0-5.2,1.6-5.3,5.3C231.9,17.1,231.9,19,231.9,20.9z"/>
	<path class="st0" d="M77.4,53.7c4.2,7.1,14.6,8.4,21,3.1c0.9-0.8,2.5-1,3.7-1.4c0.2,1.4,0.9,2.9,0.5,4c-2.5,6.8-8,10.6-15.2,12.1
		c-10.8,2.3-21.7-2-27-10.2c-5.8-8.9-5-21.3,1.9-29.1c7.2-8.3,21.1-11.1,31.3-6.3c3.7,1.7,6.5,4.2,7.7,8c1.4,4.1,0.2,7-3.8,9.1
		c-5.8,3.1-11.7,6.1-17.5,9.2C79,52.7,78.2,53.2,77.4,53.7z M74.7,48.7c2.5-1.4,4.7-2.6,6.9-3.8c5.7-3.2,6.9-6.9,4-12.5
		c-1.1-2.1-2.6-3.8-5.4-3.9c-2.8,0-4.6,1.6-5.6,3.9C72.1,37.7,73.2,43,74.7,48.7z"/>
	<path class="st0" d="M296.6,52.9c4.2,7.1,14.5,8.4,21,3.1c1-0.8,2.5-1,3.7-1.4c0.2,1.4,0.9,2.9,0.5,4c-2.5,6.8-8,10.6-15.2,12.1
		c-10.8,2.3-21.7-2-27-10.2c-5.8-8.9-5-21.3,1.9-29.1c7.2-8.3,21.1-11.1,31.3-6.3c3.7,1.7,6.5,4.2,7.7,8c1.4,4.1,0.2,7-3.8,9.1
		c-5.8,3.1-11.7,6.1-17.5,9.2C298.2,51.9,297.4,52.4,296.6,52.9z M293.9,47.9c2.5-1.4,4.7-2.6,6.9-3.8c5.7-3.2,6.9-6.9,4-12.5
		c-1.1-2.1-2.6-3.8-5.4-3.9c-2.9,0-4.6,1.6-5.6,3.9C291.3,36.9,292.4,42.2,293.9,47.9z"/>
	<g>
		<path class="st0" d="M268.2,150.5c-2.3,3.3-4.9,5.4-8.4,6.4c-8.4,2.5-17.9-0.7-23.3-7.8c-9.6-12.6-4.9-31.9,9.5-38.3
			c6.6-2.9,13.3-3.2,19.9,0.2c0.3,0.1,0.6,0.3,0.9,0.4c0.1,0.1,0.3,0,0.5,0c0-5.5,0.2-11-0.1-16.4c-0.1-1.2-2-2.2-3-3.4
			c-0.7-0.8-2-1.9-1.8-2.6c0.2-1,1.4-2.2,2.4-2.5c4.4-1.4,8.9-2.7,13.4-3.7c2.6-0.6,4.2,0.4,4.8,2.9c0.4,1.6,0.5,3.3,0.5,4.9
			c0,17.8,0,35.6,0,53.5c0,2.9,0.4,5.2,3.4,6.6c0.8,0.4,1.5,2.2,1.4,3.3c-0.1,0.8-1.5,2-2.4,2c-4.7,0.2-9.5,0.2-14.2,0
			C268.5,155.9,268.8,153.1,268.2,150.5z M267.5,132.6c0,0,0.1,0,0.1,0c0-2.3,0-4.6,0-6.9c0-0.6,0-1.3-0.1-1.9
			c-0.2-3.7-2.2-6.6-5.4-7.6c-3.5-1.1-7-0.6-9.2,2.4c-1.6,2.2-3,4.9-3.6,7.6c-1.6,6.7-1.6,13.5,2.2,19.7c2,3.3,5.8,4.6,9.5,3.7
			c3.6-0.9,6.3-4,6.5-7.8C267.6,138.8,267.5,135.7,267.5,132.6z"/>
		<g>
			<path class="st0" d="M22,120.7c3.9,0,7.5,0.2,11-0.1c1.3-0.1,2.7-1.4,3.7-2.4c1.2-1.2,1.8-2.9,3-4.1c0.7-0.7,2-1.1,2.9-0.8
				c0.6,0.2,1.3,1.5,1.3,2.4c0.1,5.4,0.1,10.9,0,16.4c0,0.8-0.7,2.2-1.3,2.4c-0.9,0.2-2.2-0.1-3-0.8c-1.1-1-1.9-2.4-2.8-3.6
				c-1.3-1.8-3-2.7-5.3-2.6c-3.1,0.1-6.3,0-9.6,0c0,6.6-0.2,12.9,0.1,19.1c0.1,1.5,1.7,2.8,2.5,4.3c0.6,1.2,1,2.6,1.5,3.8
				c-1.2,0.4-2.4,1.2-3.6,1.2c-6.2,0.1-12.4,0.1-18.7,0c-1.1,0-2.8-0.5-3-1.2c-0.3-0.9,0.1-2.6,0.8-3.4c2.2-2.6,2.8-5.4,2.8-8.7
				c-0.1-14-0.1-28,0-41.9c0-2.9-0.7-5.5-2.5-7.8c-0.8-0.9-1.5-2.7-1.1-3.6C1.1,88.5,3,88,4.2,88c14.2-0.1,28.5,0,42.7-0.1
				c2.8,0,4.1,1.1,4.5,3.7c0.6,3.5,1.3,7,2,10.5c0.6,3-1.1,4.6-3.9,3.4c-1.4-0.6-2.7-1.8-3.8-2.9c-1.2-1.1-2.1-2.5-3.1-3.7
				c-2.4-3-5.3-4.7-9.3-4.3c-2.3,0.2-4.6,0-6.9,0.1c-2.7,0.1-4.4,1.4-4.4,4C21.9,105.9,22,113.1,22,120.7z"/>
			<path class="st0" d="M72,117.2c2.3-5,6.2-7.6,11.7-8c4.1-0.3,7.3,1.3,9,4.6c1.8,3.4,1.4,9.1-0.9,11.7c-2,2.2-4.6,2.4-7.3,2
				c-2.4-0.4-3.7-1.9-4.3-4.2c-0.3-0.9-0.4-1.9-1-2.6c-0.6-0.8-1.6-1.8-2.4-1.8c-0.8,0-2.2,0.9-2.4,1.7c-0.7,2-1.1,4.1-1.1,6.2
				c-0.2,6-0.2,12.1,0,18.1c0.1,1.7,1.2,3.4,2.1,5c0.6,1,1.7,1.6,2.4,2.6c1.2,1.7,0.4,3.4-1.6,3.5c-7,0.1-14,0.1-21,0
				c-2,0-2.7-1.4-2-3.2c0.3-0.8,1.1-1.4,1.4-2.1c0.8-2,2-4,2.1-6.1c0.3-5.6,0-11.2,0.1-16.9c0-2.5-0.8-4.4-2.7-6
				c-2.9-2.6-2.6-4.4,0.9-6.1c4.1-2,8.3-3.9,12.5-5.8c2.8-1.3,3.8-0.5,3.9,2.7c0,1.5,0.1,3.1,0.1,4.6C71.6,117,71.7,117,72,117.2z"
				/>
			<path class="st0" d="M117.6,128.9c0,5.1,0.1,10.2,0,15.3c-0.1,2.5,0.7,4.5,2.4,6.2c0.6,0.6,1.2,1.3,1.5,2
				c0.9,1.9,0.2,3.4-1.8,3.4c-7,0.1-14,0.1-21,0c-2.2,0-3.2-2.2-1.6-3.9c3.5-3.8,3.2-8.2,3.2-12.7c0-3.5-0.1-7,0-10.5
				c0.1-2.8-0.7-5.1-2.5-7.2c-2.1-2.5-1.8-3.7,1.1-5.1c4.5-2.2,9-4.4,13.6-6.6c3.8-1.8,5.1-0.8,5.1,3.4
				C117.6,118.5,117.6,123.7,117.6,128.9z"/>
			
				<ellipse transform="matrix(0.9138 -0.4061 0.4061 0.9138 -30.0305 51.9171)" class="st0" cx="107.3" cy="96.7" rx="10.2" ry="8.3"/>
			<path class="st0" d="M193.6,115.5c6.7-6.8,14.3-8.1,22.7-5.3c6.5,2.2,10,7.4,10.1,15.1c0.1,6.6,0.1,13.3,0.1,20
				c0,2.3,0.4,4.2,2.6,5.6c0.8,0.5,1.3,2,1.1,3c-0.1,0.8-1.3,1.8-2.2,2c-1.8,0.4-3.7,0.3-5.6,0.3c-3.7,0-7.4,0-11.1,0
				c-1.7,0-3.4-0.1-4.1-1.9c-0.8-1.9,0.6-2.9,1.9-4.1c0.8-0.7,1.6-1.9,1.6-2.9c0-7.9,0.1-15.8-0.3-23.7c-0.2-4.5-2.4-6.3-6.2-6.4
				c-4.5-0.2-7.9,2.1-8.8,6.1c-0.3,1.4-0.5,2.8-0.5,4.2c-0.1,6.2,0,12.4,0,18.6c0,2,0.6,3.5,2.3,4.8c0.8,0.6,1.6,2.2,1.3,3.1
				c-0.2,0.9-1.7,2.1-2.6,2.1c-5.9,0.2-11.8,0.2-17.6,0c-1,0-2.4-1.3-2.7-2.3c-0.2-0.8,0.6-2.4,1.5-3c1.7-1.2,2.2-2.8,2.2-4.6
				c0-7.6,0-15.2,0-22.8c0-2-0.9-3.5-2.8-4.6c-2.9-1.6-3.1-3.8-0.2-5.2c4-1.9,8.2-3.3,12.5-4.6c1.9-0.6,3.1,1.2,3.7,2.9
				C193,113,193.2,114.1,193.6,115.5z"/>
			<path class="st0" d="M310.8,113.4c-3.6,2.7-4,7.1-1.1,10.3c1.5,1.6,3.4,2.6,5.4,3.3c2.4,0.9,4.8,1.7,7.2,2.6
				c2.4,0.9,4.6,2.1,6.6,3.8c4.2,3.7,5,12.2,0.6,16.9c-2.3,2.4-5.1,3.9-8.2,4.9c-3.8,1.2-7.7,1.3-11.6,1.2c-4-0.1-7.8-0.7-11.5-2.1
				c-2.5-1-4.7-2.4-6.4-4.5c-1.6-2-1.7-4.2-1.2-6.5c0.3-1.5,1.4-2.5,2.7-3.2c3.6-1.9,8.2-0.6,10.2,3c0.8,1.5,1.5,3.1,2.2,4.6
				c0.4,0.8,0.8,1.7,1.3,2.4c1.6,2.3,4.1,2.7,6.9,1.8c1.2-0.4,2.1-1.3,2.4-2.5c0.6-2.5,0.5-4.9-1.4-6.9c-1.8-1.9-4.1-2.7-6.4-3.6
				c-3.6-1.2-7.3-2.3-10.7-4c-7.4-3.6-8.9-14.6-3-20.2c3-2.9,6.6-4.6,10.5-5.3c6-1.2,11.9-0.7,17.6,1.3c2.6,0.9,5,2.2,6.8,4.4
				c1.2,1.5,1.9,3.2,2.1,5.4c-0.3,4.8-5.6,6.5-9,5.2c-1.7-0.6-2.9-1.8-3.7-3.3c-0.6-1.1-1-2.3-1.5-3.5c-0.3-0.8-0.6-1.6-1-2.4
				C315.1,113.7,314.1,113.1,310.8,113.4z"/>
			<path class="st0" d="M145.9,139.2c4.2,7.1,14.6,8.4,21,3.1c0.9-0.8,2.5-1,3.7-1.4c0.2,1.4,0.9,2.9,0.5,4
				c-2.5,6.8-8,10.6-15.2,12.1c-10.8,2.3-21.7-2-27-10.2c-5.8-8.9-5-21.3,1.9-29.1c7.2-8.3,21.1-11.1,31.3-6.3
				c3.7,1.7,6.5,4.2,7.7,8c1.4,4.1,0.2,7-3.8,9.1c-5.8,3.1-11.7,6.1-17.5,9.2C147.5,138.3,146.7,138.8,145.9,139.2z M143.2,134.2
				c2.5-1.4,4.7-2.6,6.9-3.8c5.7-3.2,6.9-6.9,4-12.5c-1.1-2.1-2.6-3.8-5.4-3.9c-2.9,0-4.6,1.6-5.6,3.9
				C140.6,123.2,141.7,128.6,143.2,134.2z"/>
		</g>
	</g>
</g>
</svg>
