<?xml version="1.0" encoding="utf-8"?>
<!-- Generator: Adobe Illustrator 25.1.0, SVG Export Plug-In . SVG Version: 6.00 Build 0)  -->
<svg version="1.1" id="Layer_1" xmlns="http://www.w3.org/2000/svg" xmlns:xlink="http://www.w3.org/1999/xlink" x="0px" y="0px"
	 viewBox="0 0 282.34 261.67" style="enable-background:new 0 0 282.34 261.67;" xml:space="preserve">
<g>
	<path d="M174.68,182.45c-15.49,9.23-37.98,10.74-54.71,3.67c-2.9-1.22-6.24,0.13-7.46,3.03c-1.22,2.9,0.13,6.24,3.03,7.46
		c8.52,3.6,18.09,5.36,27.72,5.36c13.17,0,26.45-3.31,37.25-9.74c2.7-1.61,3.59-5.1,1.98-7.81
		C180.88,181.72,177.39,180.84,174.68,182.45z"/>
	<path d="M87.35,125.42c-5.96,0-10.82,4.85-10.82,10.82c0,5.96,4.85,10.82,10.82,10.82c5.96,0,10.82-4.85,10.82-10.82
		C98.17,130.27,93.32,125.42,87.35,125.42z M87.35,139.56c-1.84,0-3.33-1.49-3.33-3.33c0-1.84,1.49-3.33,3.33-3.33
		s3.33,1.49,3.33,3.33C90.68,138.07,89.19,139.56,87.35,139.56z"/>
	<path d="M208.82,120.19c0-5.96-4.85-10.82-10.82-10.82c-5.96,0-10.82,4.85-10.82,10.82c0,5.96,4.85,10.82,10.82,10.82
		C203.97,131,208.82,126.15,208.82,120.19z M198,123.52c-1.84,0-3.33-1.49-3.33-3.33s1.5-3.33,3.33-3.33c1.84,0,3.33,1.49,3.33,3.33
		S199.84,123.52,198,123.52z"/>
	<path d="M127.19,146.12c0.99,0.05,2.17,0.18,3.49,0.31c2.35,0.25,5.48,0.57,8.97,0.57c10.54,0,24.34-2.98,29.58-20.18
		c0.92-3.01-0.78-6.19-3.79-7.11c-3.01-0.92-6.19,0.78-7.11,3.79c-3.92,12.87-14.32,12.87-26.48,11.6c-1.55-0.16-2.93-0.3-4.1-0.36
		c-3.14-0.19-5.81,2.26-5.97,5.4C121.63,143.29,124.05,145.96,127.19,146.12z"/>
	<path d="M127.43,49.41c-0.07,11.49-0.07,22.8,0,33.61c0.01,2.17-0.49,3.71-1.67,5.16c-0.89,1.08-1.57,3.06-1.08,4.59
		c0.68,2.14,4.17,2.22,4.32,2.22c4.26,0.06,8.52,0.05,12.79,0.05l9.14-0.01c4.1-0.01,8.2-0.02,12.3,0.02c0.03,0,0.06,0,0.09,0
		c3.78,0,4.92-2.37,5.22-4.37c0.27-1.84,0.6-3.68,0.92-5.51c0.31-1.74,0.62-3.49,0.88-5.24c0-0.03,0.44-3.05-1.44-4.06
		c-1.2-0.64-2.93-0.74-4.22-0.23c-1.32,0.53-2.25,1.74-2.83,2.6c-0.61,0.91-1.17,1.85-1.73,2.78c-0.54,0.91-1.09,1.82-1.68,2.7
		c-1.01,1.5-2.22,2.24-3.7,2.27c-2.44,0.06-4.94,0.03-7.36,0.01l-0.28,0c-1.16-0.01-1.5-0.59-1.66-1.1
		c-0.29-0.89-0.45-1.92-0.45-2.99c-0.02-4.25-0.01-8.5-0.01-12.74c0-6.34,0.01-12.69-0.05-19.04c-0.03-2.86,0.49-4.44,1.92-5.81
		c1.09-1.05,1.63-3.09,1.19-4.53c-0.65-2.16-4.07-2.24-4.1-2.24c-5.27-0.09-10.13-0.09-14.85,0c-0.36,0.01-3.51,0.13-4.39,2.12
		c-0.71,1.6,0.27,3.72,1.11,4.75C126.95,45.82,127.45,47.36,127.43,49.41z"/>
	<path d="M91.99,196.06c-1.27-0.89-2.6-1.53-3.96-2.03c0.26-0.18,0.52-0.37,0.77-0.58c4.63-3.91,5.62-11.24,2.24-16.69
		c-1.69-2.73-4.26-4.67-8.07-6.12c-2.77-1.05-5.83-1.6-9.34-1.68c-2.64-0.06-5.27-0.05-7.91-0.05l-7.23,0c-2.01,0-4.03,0-6.04,0
		c-0.96-0.01-2.7-0.01-3.81,1.71l-0.21,0.43c-0.38,1.17-0.46,2.95,1.31,4.82c0.93,0.98,1.33,2.13,1.31,3.82
		c-0.05,7.26-0.04,14.52-0.04,21.79l0,7.69l-0.01,1.47c-0.01,1.15-0.02,2.31,0.03,3.46c0.04,1.05-0.27,1.9-1.03,2.78l-0.14,0.16
		c-0.19,0.22-0.39,0.44-0.56,0.68c-1.38,1.82-1.21,3.42-0.83,4.44l0.24,0.44c1.09,1.5,2.61,1.59,3.6,1.59c0.07,0,0.14,0,0.2,0
		l0.19,0c3.55,0,7.09,0,10.64,0c2.62,0,5.22-0.07,7.86,0c4.75,0,8.65-0.39,12.26-1.22c3.29-0.76,6.15-1.98,8.75-3.73
		c3.68-2.48,5.91-6.73,5.95-11.36C98.21,203.15,95.96,198.85,91.99,196.06z M80.4,211.18c-0.41,2.63-1.87,3.89-4.89,4.21
		c-1.37,0.15-2.83,0.08-3.94,0c-2.12-0.14-3.45-1.52-3.56-3.67c-0.16-3.17-0.12-6.33-0.09-9.67c0.01-0.86,0.02-1.73,0.02-2.6
		c3.99-0.07,6.73,0.76,8.99,2.71C79.79,204.62,80.95,207.65,80.4,211.18z M67.91,182.84c-0.01-0.98-0.01-1.96,0.01-2.95
		c0.04-1.93,0.5-2.16,2.15-2.18c1.13,0.01,2.43,0.07,3.58,0.36c1.47,0.38,2.57,1.29,3.27,2.72c1.15,2.36,1.41,4.64,0.81,6.97
		c-0.44,1.7-1.84,2.8-3.66,2.89c-0.78,0.04-1.56,0.03-2.35,0.02c-0.32,0-0.65-0.01-0.97-0.01c-0.3,0-0.6,0-0.9,0.01
		c-1.65-0.03-1.89-1.38-1.92-1.99c-0.05-1.04-0.03-2.07-0.02-3.11l0.01-1.45L67.91,182.84z"/>
	<path d="M244.3,178.62c-0.35-1.81-0.71-3.61-1.02-5.43c-0.5-2.9-2.3-4.33-5.28-4.34c-10.82,0.07-21.63,0.01-32.45,0.08
		c-0.03,0-3.45,0.04-4.31,2.13c-0.65,1.58,0.31,3.62,1.11,4.59c1.08,1.32,1.53,2.73,1.52,4.74c-0.06,11.8-0.06,22.22,0.01,31.86
		c0.02,2.45-0.47,4.02-1.68,5.4c-0.88,1.01-1.48,2.93-0.96,4.42c0.71,2.05,3.88,2.13,4.02,2.13c2.52,0.04,4.93,0.06,7.25,0.06
		c2.41,0,4.73-0.02,7-0.07c1.01-0.02,1.89-0.42,2.59-0.74c0.24-0.11,0.48-0.22,0.72-0.31l1.76-0.63l-0.65-1.76
		c-0.11-0.28-0.2-0.57-0.3-0.86c-0.25-0.73-0.51-1.49-0.89-2.25c-0.29-0.57-0.68-1.08-1.02-1.52c-0.25-0.33-0.63-0.83-0.67-0.99
		c-0.15-3.43-0.13-6.83-0.11-10.43c0-0.72,0.01-1.43,0.01-2.16c0.14,0,0.27,0,0.41,0c1.75,0.02,3.41,0.03,5.1-0.03
		c1.05-0.06,1.76,0.31,2.44,1.21c0.19,0.26,0.37,0.53,0.56,0.79c0.5,0.73,1.06,1.56,1.84,2.24c1.03,0.9,2.69,1.31,3.93,0.97
		c1.5-0.4,2.33-2.32,2.36-3.56c0.09-4.16,0.09-8.37,0-12.5c-0.02-1.04-0.75-3.15-2.4-3.55c-1.29-0.32-2.99,0.16-3.96,1.11
		c-0.61,0.6-1.05,1.29-1.44,1.9c-0.3,0.47-0.58,0.91-0.89,1.23c-1.07,1.11-1.5,1.28-1.62,1.3c-1.8,0.17-3.68,0.14-5.66,0.11
		c-0.24,0-0.47-0.01-0.71-0.01l-0.01-3.04c-0.01-4.08-0.02-7.93,0.04-11.84c0.01-0.48,0.02-1.14,1.58-1.2c0.7-0.03,1.41-0.01,2.11,0
		c1.04,0.02,2.12,0.04,3.22-0.06c2.19-0.18,3.86,0.61,5.43,2.6l0.49,0.63c0.61,0.8,1.25,1.62,2.06,2.41
		c0.95,0.93,2.04,1.99,3.44,2.56c1.62,0.66,3.17,0.52,4.27-0.37c1.13-0.93,1.58-2.49,1.24-4.3L244.3,178.62z"/>
	<path d="M120.43,18.49c2.42-3.87,6.66-6.22,11.22-6.2l19.93,0.06c4.56,0.01,8.79,2.38,11.18,6.26l68.62,111.17
		c1.45,2.35,4.59,3,6.85,1.41l2.14-1.5c2.08-1.46,2.66-4.29,1.33-6.46L169.59,6.41c-2.39-3.88-6.62-6.25-11.18-6.26l-33.53-0.1
		c-4.56-0.01-8.8,2.33-11.22,6.2L99.3,29.25c-1.41,2.25-0.72,5.22,1.54,6.63l2.22,1.38c2.25,1.4,5.21,0.71,6.61-1.54L120.43,18.49z"
		/>
	<g>
		<path d="M77.12,249.25l-17.01-0.05c-4.21-0.01-8.17-2.04-10.64-5.45L17.24,199.3c-3.15-4.34-3.35-10.17-0.51-14.72L94.35,60.27
			c1.41-2.25,0.72-5.22-1.54-6.63l-2.22-1.38c-2.25-1.4-5.21-0.71-6.61,1.54L2,185.09c-2.84,4.55-2.64,10.37,0.51,14.72l40.71,56.16
			c2.47,3.41,6.42,5.43,10.63,5.44l23.24,0.07c2.66,0.01,4.82-2.15,4.82-4.8v-2.61C81.91,251.41,79.77,249.26,77.12,249.25z"/>
		<path d="M280.37,185.88l-23.44-37.98c-1.45-2.35-4.59-3-6.85-1.41l-2.14,1.5c-2.08,1.46-2.66,4.29-1.33,6.46l19.03,30.83
			c2.83,4.58,2.59,10.41-0.61,14.75l-32.64,44.29c-2.49,3.38-6.45,5.37-10.65,5.36l-115.69-0.34c-2.66-0.01-4.82,2.15-4.82,4.8v2.61
			c0,2.65,2.14,4.8,4.79,4.8l121.87,0.35c4.2,0.01,8.16-1.98,10.65-5.36l41.21-55.92C282.96,196.3,283.2,190.46,280.37,185.88z"/>
	</g>
</g>
</svg>
