<?xml version="1.0" encoding="utf-8"?>
<!-- Generator: Adobe Illustrator 25.1.0, SVG Export Plug-In . SVG Version: 6.00 Build 0)  -->
<svg version="1.1" id="Layer_1" xmlns="http://www.w3.org/2000/svg" xmlns:xlink="http://www.w3.org/1999/xlink" x="0px" y="0px"
	 viewBox="0 0 332.41 157.72" style="enable-background:new 0 0 332.41 157.72;" xml:space="preserve">
<g>
	<path d="M25.58,71.29c-7.17,0-14.34,0.05-21.5-0.05c-1.15-0.02-3.04-0.49-3.26-1.17c-0.32-1.03,0.2-2.69,0.95-3.61
		c1.96-2.39,2.67-4.97,2.65-8.02c-0.09-14.15-0.09-28.31,0-42.46c0.02-2.96-0.68-5.46-2.57-7.79C1.09,7.25,0.38,5.5,0.77,4.61
		c0.35-0.8,2.23-1.26,3.45-1.28c6.23-0.12,12.46-0.11,18.68,0c1.05,0.02,2.79,0.52,2.98,1.17c0.29,0.97-0.14,2.64-0.89,3.36
		c-2.65,2.55-3.18,5.57-3.15,9.06c0.12,13.39,0.03,26.77,0.08,40.16c0.01,1.51,0.22,3.07,0.69,4.5c0.64,1.96,2.21,2.98,4.31,3
		c3.24,0.03,6.49,0.06,9.73-0.01c2.88-0.07,5.01-1.62,6.56-3.9c1.53-2.25,2.8-4.68,4.32-6.94c0.64-0.96,1.5-2.02,2.5-2.42
		c0.97-0.39,2.43-0.31,3.34,0.18c0.55,0.3,0.75,1.82,0.61,2.71c-0.68,4.54-1.62,9.05-2.29,13.6c-0.39,2.67-1.83,3.54-4.37,3.51
		C40.09,71.24,32.83,71.29,25.58,71.29z"/>
	<path d="M128.41,31.84c0,8.21-0.2,16.04,0.09,23.85c0.14,3.82,4.04,5.38,7.72,3.48c0.74-0.38,1.3-1.09,2-1.55
		c1.12-0.73,2.29-1.38,3.44-2.06c0.29,1.39,1.01,2.85,0.81,4.17c-1.18,7.9-9.01,13.44-17.3,12.45c-9.06-1.09-13.91-6.77-14.16-16.9
		c-0.16-6.81-0.04-13.63-0.05-20.45c0-0.91,0-1.82,0-2.82c-0.99-0.06-1.65-0.12-2.32-0.15c-2.96-0.1-3.51-0.76-3.5-3.71
		c0.01-2.12,1.06-2.75,3.01-2.9c2.01-0.15,4.1-0.37,5.97-1.06c3.62-1.33,5.64-4.25,6.62-7.91c0.54-2.04,1.59-3.27,3.92-3.2
		c2.86,0.09,3.64,0.75,3.67,3.61c0.02,2.71,0,5.43,0,8.59c2.96,0,5.73-0.01,8.5,0c3,0.02,3.7,0.64,3.71,3.23
		c0.01,2.61-0.73,3.3-3.63,3.32C134.19,31.86,131.47,31.84,128.41,31.84z"/>
	<path d="M157.56,0.53c-3.61-1.29-6.63,0.29-7.98,4.86c-0.3,2.46-0.61,5.04-0.94,7.71c-0.5,4.26-0.59,9.42,2.91,9.42
		c1.4,0,2.59-1.02,3.58-2.39c2.01-3.86,4.02-7.72,5.91-11.64C162.75,4.95,161.21,1.83,157.56,0.53z"/>
	<path d="M176.54,27.21c-3.56,2.65-3.98,7.1-1.1,10.3c1.47,1.64,3.38,2.57,5.38,3.33c2.38,0.91,4.81,1.7,7.2,2.6
		c2.4,0.9,4.64,2.05,6.61,3.76c4.25,3.68,5.01,12.18,0.57,16.89c-2.29,2.43-5.09,3.94-8.23,4.91c-3.78,1.17-7.67,1.27-11.6,1.19
		c-3.96-0.08-7.78-0.68-11.46-2.13c-2.5-0.99-4.7-2.36-6.38-4.5c-1.56-1.98-1.72-4.22-1.2-6.54c0.33-1.48,1.36-2.53,2.7-3.24
		c3.61-1.9,8.22-0.58,10.22,2.99c0.83,1.48,1.46,3.07,2.21,4.59c0.41,0.84,0.81,1.69,1.34,2.45c1.64,2.33,4.06,2.66,6.86,1.83
		c1.21-0.36,2.08-1.29,2.37-2.5c0.61-2.49,0.55-4.89-1.39-6.91c-1.78-1.85-4.08-2.74-6.41-3.55c-3.61-1.24-7.27-2.29-10.74-3.98
		c-7.44-3.63-8.86-14.55-3.04-20.23c2.99-2.92,6.57-4.56,10.55-5.33c5.96-1.15,11.86-0.73,17.6,1.32c2.59,0.93,4.98,2.23,6.8,4.37
		c1.24,1.47,1.93,3.19,2.1,5.39c-0.34,4.82-5.56,6.49-8.99,5.23c-1.72-0.63-2.88-1.79-3.71-3.31c-0.61-1.11-1.05-2.32-1.55-3.49
		c-0.33-0.78-0.6-1.59-0.97-2.36C180.92,27.45,179.91,26.91,176.54,27.21z"/>
	<path d="M254.76,34.73c3.73,0.89,7.07,1.87,9.98,3.91c10.02,7.03,8.8,20.81,0.33,26.53c-3.31,2.24-6.9,3.69-10.73,4.57
		c-5.16,1.19-10.42,1.56-15.72,1.55c-8.11-0.01-16.21,0-24.32,0c-1.2,0-2.42,0.1-3.28-1.08c-0.49-1.29-0.06-2.45,0.75-3.52
		c0.26-0.34,0.54-0.66,0.82-0.98c1.34-1.54,2.05-3.28,1.96-5.37c-0.09-2.13-0.02-4.26-0.02-6.39c0-12.96-0.05-25.91,0.04-38.87
		c0.02-2.63-0.6-4.84-2.41-6.75c-1.04-1.09-1.68-2.36-1.18-3.91c0.73-1.13,1.83-1.14,2.97-1.14c4.52,0.01,9.04,0,13.57,0.01
		c4.78,0.01,9.56-0.05,14.33,0.05c3.93,0.09,7.81,0.65,11.5,2.05c3.81,1.45,7.21,3.49,9.43,7.07c3.86,6.22,2.72,14.48-2.45,18.85
		c-1.09,0.92-2.42,1.56-3.65,2.32C256.15,33.98,255.57,34.27,254.76,34.73z M231.98,38.77c0,6.41-0.23,12.54,0.08,18.64
		c0.21,4.24,3.11,6.9,6.98,7.16c1.87,0.13,3.77,0.18,5.62-0.01c4.35-0.46,7.8-2.43,8.61-7.61c0.88-5.63-1.1-10.43-5.39-14.13
		C243.4,38.94,237.98,38.3,231.98,38.77z M231.93,20.87c0,2.04-0.07,4.09,0.02,6.13c0.12,2.88,2.04,5.04,5.03,4.97
		c1.87-0.04,3.75,0.05,5.62-0.04c3.45-0.16,6.22-2.35,7.08-5.64c0.98-3.77,0.46-7.41-1.23-10.89c-1.23-2.52-3.24-4.21-5.91-4.89
		c-1.7-0.43-3.52-0.53-5.29-0.55c-3.67-0.04-5.23,1.56-5.31,5.28C231.89,17.12,231.92,19,231.93,20.87z"/>
	<path d="M77.36,53.68c4.21,7.06,14.55,8.43,21.04,3.1c0.95-0.78,2.46-0.96,3.71-1.42c0.19,1.36,0.91,2.89,0.48,4.04
		c-2.53,6.76-8.01,10.6-15.22,12.12c-10.77,2.27-21.71-1.99-27.04-10.2c-5.79-8.92-5-21.26,1.86-29.1
		c7.25-8.28,21.08-11.06,31.32-6.27c3.66,1.71,6.46,4.2,7.73,7.98c1.38,4.08,0.2,6.98-3.84,9.13c-5.82,3.1-11.68,6.14-17.51,9.21
		C79.03,52.72,78.19,53.21,77.36,53.68z M74.7,48.68c2.51-1.4,4.71-2.61,6.9-3.84c5.72-3.21,6.89-6.87,3.97-12.53
		c-1.09-2.12-2.63-3.82-5.36-3.86c-2.85-0.04-4.58,1.6-5.64,3.86C72.06,37.68,73.16,43.03,74.7,48.68z"/>
	<path d="M296.56,52.86c4.21,7.06,14.55,8.43,21.04,3.1c0.95-0.78,2.46-0.96,3.71-1.42c0.19,1.36,0.91,2.89,0.48,4.04
		c-2.53,6.76-8.01,10.6-15.22,12.12c-10.77,2.27-21.71-1.99-27.04-10.2c-5.79-8.92-5-21.26,1.86-29.1
		c7.25-8.28,21.08-11.06,31.32-6.27c3.66,1.71,6.46,4.2,7.73,7.98c1.38,4.08,0.2,6.98-3.84,9.13c-5.82,3.1-11.68,6.14-17.51,9.21
		C298.23,51.9,297.4,52.39,296.56,52.86z M293.9,47.86c2.51-1.4,4.71-2.61,6.9-3.84c5.72-3.21,6.89-6.87,3.97-12.53
		c-1.09-2.12-2.63-3.82-5.36-3.86c-2.85-0.04-4.58,1.6-5.64,3.86C291.26,36.87,292.36,42.21,293.9,47.86z"/>
	<g>
		<path d="M268.21,150.46c-2.28,3.26-4.9,5.41-8.36,6.44c-8.37,2.47-17.9-0.68-23.29-7.75c-9.64-12.63-4.94-31.86,9.49-38.28
			c6.57-2.92,13.29-3.2,19.89,0.16c0.28,0.14,0.57,0.27,0.87,0.37c0.14,0.05,0.31,0.01,0.48,0.01c0-5.47,0.18-10.96-0.14-16.41
			c-0.07-1.17-1.97-2.21-2.96-3.37c-0.72-0.84-1.98-1.9-1.83-2.62c0.2-0.99,1.36-2.21,2.37-2.53c4.42-1.42,8.91-2.65,13.43-3.74
			c2.59-0.62,4.17,0.41,4.81,2.95c0.4,1.58,0.53,3.27,0.53,4.9c0.04,17.82,0.05,35.64-0.01,53.46c-0.01,2.88,0.37,5.2,3.35,6.64
			c0.84,0.4,1.47,2.22,1.35,3.3c-0.08,0.78-1.54,1.96-2.42,2c-4.72,0.19-9.46,0.22-14.18,0.03
			C268.49,155.88,268.78,153.11,268.21,150.46z M267.47,132.6c0.04,0,0.09,0,0.13,0c0-2.29,0.01-4.57,0-6.86
			c0-0.63-0.05-1.26-0.09-1.89c-0.25-3.68-2.25-6.56-5.44-7.57c-3.55-1.11-6.97-0.57-9.23,2.42c-1.65,2.19-2.98,4.88-3.59,7.55
			c-1.56,6.74-1.55,13.5,2.17,19.69c2,3.31,5.75,4.61,9.5,3.69c3.56-0.88,6.31-4.03,6.51-7.81
			C267.6,138.76,267.47,135.67,267.47,132.6z"/>
		<g>
			<path d="M21.96,120.73c3.93,0,7.52,0.22,11.05-0.12c1.3-0.12,2.65-1.4,3.66-2.45c1.17-1.21,1.84-2.91,3.03-4.08
				c0.66-0.65,2.03-1.05,2.9-0.83c0.61,0.15,1.29,1.52,1.31,2.36c0.12,5.45,0.12,10.91,0,16.36c-0.02,0.84-0.67,2.21-1.29,2.37
				c-0.88,0.23-2.24-0.14-2.95-0.76c-1.13-0.99-1.89-2.39-2.81-3.62c-1.31-1.75-2.97-2.66-5.26-2.57c-3.13,0.12-6.26,0.03-9.6,0.03
				c0,6.59-0.16,12.88,0.12,19.14c0.07,1.47,1.73,2.82,2.49,4.31c0.62,1.21,0.98,2.55,1.45,3.83c-1.19,0.43-2.38,1.21-3.57,1.23
				c-6.22,0.13-12.45,0.11-18.68,0.01c-1.07-0.02-2.79-0.49-3.02-1.16c-0.33-0.95,0.09-2.6,0.8-3.41c2.25-2.56,2.84-5.43,2.82-8.73
				c-0.1-13.98-0.08-27.96-0.01-41.93c0.02-2.95-0.65-5.47-2.55-7.8c-0.77-0.94-1.47-2.66-1.1-3.58c0.32-0.78,2.22-1.28,3.42-1.29
				c14.24-0.09,28.49,0,42.73-0.1c2.76-0.02,4.08,1.08,4.53,3.69c0.6,3.52,1.32,7.02,1.99,10.53c0.56,2.97-1.14,4.58-3.93,3.44
				c-1.43-0.58-2.66-1.79-3.79-2.9c-1.15-1.12-2.1-2.46-3.1-3.73c-2.37-3-5.29-4.69-9.28-4.34c-2.29,0.2-4.61-0.02-6.91,0.06
				c-2.71,0.1-4.38,1.45-4.43,3.98C21.89,105.91,21.96,113.14,21.96,120.73z"/>
			<path d="M72,117.16c2.26-5,6.22-7.63,11.69-8.03c4.08-0.3,7.33,1.3,8.99,4.55c1.77,3.45,1.38,9.12-0.86,11.65
				c-1.98,2.24-4.59,2.44-7.3,1.99c-2.36-0.39-3.69-1.95-4.34-4.18c-0.26-0.9-0.42-1.91-0.97-2.61c-0.61-0.78-1.6-1.76-2.41-1.76
				c-0.85,0.01-2.17,0.93-2.44,1.73c-0.66,1.99-1.09,4.13-1.14,6.22c-0.15,6.05-0.22,12.1,0.03,18.14c0.07,1.69,1.21,3.4,2.12,4.96
				c0.58,1,1.74,1.65,2.41,2.61c1.16,1.69,0.44,3.45-1.58,3.49c-6.99,0.13-13.98,0.12-20.97,0.02c-1.95-0.03-2.7-1.4-1.98-3.22
				c0.31-0.77,1.06-1.36,1.36-2.13c0.79-1.99,1.96-4.02,2.06-6.07c0.28-5.61,0.02-11.24,0.14-16.87c0.05-2.52-0.81-4.37-2.69-6.02
				c-2.92-2.56-2.62-4.42,0.93-6.14c4.14-2,8.32-3.93,12.52-5.81c2.8-1.26,3.85-0.5,3.93,2.66c0.04,1.53,0.07,3.06,0.11,4.59
				C71.62,116.99,71.74,117.02,72,117.16z"/>
			<path d="M117.6,128.93c0,5.11,0.08,10.22-0.03,15.33c-0.05,2.47,0.7,4.48,2.4,6.22c0.59,0.6,1.17,1.28,1.54,2.02
				c0.92,1.86,0.18,3.41-1.85,3.44c-6.99,0.11-13.98,0.12-20.97,0c-2.16-0.04-3.16-2.16-1.55-3.87c3.54-3.75,3.2-8.19,3.15-12.69
				c-0.04-3.49-0.12-6.99,0.03-10.48c0.12-2.81-0.72-5.12-2.52-7.25c-2.09-2.47-1.78-3.67,1.13-5.11c4.5-2.23,9.02-4.44,13.56-6.6
				c3.75-1.78,5.12-0.85,5.13,3.39C117.6,118.54,117.6,123.73,117.6,128.93z"/>
			<ellipse transform="matrix(0.9138 -0.4061 0.4061 0.9138 -30.0309 51.9188)" cx="107.32" cy="96.72" rx="10.25" ry="8.3"/>
			<path d="M193.63,115.54c6.66-6.75,14.3-8.12,22.73-5.29c6.54,2.19,9.97,7.36,10.15,15.08c0.15,6.65,0.1,13.31,0.05,19.96
				c-0.02,2.33,0.39,4.23,2.57,5.63c0.75,0.48,1.27,2.03,1.12,2.96c-0.13,0.79-1.3,1.83-2.16,2c-1.82,0.36-3.74,0.27-5.61,0.28
				c-3.69,0.03-7.38,0.03-11.06,0c-1.67-0.01-3.43-0.07-4.15-1.95c-0.75-1.95,0.61-2.92,1.94-4.05c0.81-0.68,1.62-1.92,1.62-2.91
				c0.04-7.9,0.12-15.81-0.28-23.69c-0.23-4.51-2.39-6.3-6.24-6.44c-4.51-0.17-7.89,2.13-8.82,6.13c-0.32,1.36-0.47,2.79-0.48,4.18
				c-0.05,6.18,0.01,12.37-0.04,18.56c-0.02,2.04,0.63,3.52,2.33,4.8c0.81,0.61,1.55,2.21,1.31,3.08c-0.25,0.91-1.7,2.07-2.65,2.11
				c-5.88,0.2-11.77,0.21-17.64,0c-0.99-0.04-2.44-1.31-2.74-2.29c-0.25-0.8,0.64-2.41,1.49-3c1.73-1.19,2.24-2.75,2.25-4.6
				c0.03-7.59,0.04-15.19,0.02-22.78c0-2.04-0.92-3.51-2.76-4.56c-2.87-1.63-3.1-3.78-0.18-5.2c3.96-1.93,8.22-3.34,12.47-4.57
				c1.92-0.56,3.07,1.21,3.71,2.91C192.97,112.99,193.22,114.13,193.63,115.54z"/>
			<path d="M310.75,113.4c-3.56,2.65-3.98,7.1-1.1,10.3c1.47,1.64,3.38,2.57,5.38,3.33c2.38,0.91,4.81,1.7,7.2,2.6
				c2.4,0.9,4.64,2.05,6.61,3.76c4.25,3.68,5.01,12.18,0.57,16.89c-2.29,2.43-5.09,3.94-8.23,4.91c-3.78,1.17-7.67,1.27-11.6,1.19
				c-3.96-0.08-7.78-0.68-11.46-2.13c-2.5-0.99-4.7-2.36-6.38-4.5c-1.56-1.98-1.72-4.22-1.2-6.54c0.33-1.48,1.36-2.53,2.7-3.24
				c3.61-1.9,8.22-0.58,10.22,2.99c0.83,1.48,1.46,3.07,2.21,4.59c0.41,0.84,0.81,1.69,1.34,2.45c1.64,2.33,4.06,2.66,6.86,1.83
				c1.21-0.36,2.08-1.29,2.37-2.5c0.61-2.49,0.55-4.89-1.39-6.91c-1.78-1.85-4.08-2.74-6.41-3.55c-3.61-1.24-7.27-2.29-10.74-3.98
				c-7.44-3.63-8.86-14.55-3.04-20.23c2.99-2.92,6.57-4.56,10.55-5.33c5.96-1.15,11.86-0.73,17.6,1.32c2.59,0.93,4.98,2.23,6.8,4.37
				c1.24,1.47,1.93,3.19,2.1,5.39c-0.34,4.82-5.56,6.49-8.99,5.23c-1.72-0.63-2.88-1.79-3.71-3.31c-0.61-1.11-1.05-2.32-1.55-3.49
				c-0.33-0.78-0.6-1.59-0.97-2.36C315.14,113.65,314.13,113.11,310.75,113.4z"/>
			<path d="M145.86,139.22c4.21,7.06,14.55,8.43,21.04,3.1c0.95-0.78,2.46-0.96,3.71-1.42c0.19,1.36,0.91,2.89,0.48,4.04
				c-2.53,6.76-8.01,10.6-15.22,12.12c-10.77,2.27-21.71-1.99-27.04-10.2c-5.79-8.92-5-21.26,1.86-29.1
				c7.25-8.28,21.08-11.06,31.32-6.27c3.66,1.71,6.46,4.2,7.73,7.98c1.38,4.08,0.2,6.98-3.84,9.13c-5.82,3.1-11.68,6.14-17.51,9.21
				C147.53,138.27,146.7,138.76,145.86,139.22z M143.2,134.23c2.51-1.4,4.71-2.61,6.9-3.84c5.72-3.21,6.89-6.87,3.97-12.53
				c-1.09-2.12-2.63-3.82-5.36-3.86c-2.85-0.04-4.58,1.6-5.64,3.86C140.56,123.23,141.66,128.58,143.2,134.23z"/>
		</g>
	</g>
</g>
</svg>
